<svg xmlns="http://www.w3.org/2000/svg" xmlns:xlink="http://www.w3.org/1999/xlink" width="800" zoomAndPan="magnify" viewBox="0 0 600 195.000001" height="260" preserveAspectRatio="xMidYMid meet" version="1.0"><defs><clipPath id="468043fcea"><path d="M 1.53125 0 L 598.46875 0 L 598.46875 194.003906 L 1.53125 194.003906 Z M 1.53125 0 " clip-rule="nonzero"/></clipPath><clipPath id="d63366be3b"><path d="M 333 70 L 383 70 L 383 143.605469 L 333 143.605469 Z M 333 70 " clip-rule="nonzero"/></clipPath><clipPath id="563c222dd5"><path d="M 159 50.332031 L 215 50.332031 L 215 123 L 159 123 Z M 159 50.332031 " clip-rule="nonzero"/></clipPath><clipPath id="f2b28fed9f"><path d="M 4 50.332031 L 61 50.332031 L 61 102 L 4 102 Z M 4 50.332031 " clip-rule="nonzero"/></clipPath><clipPath id="246e5d8787"><path d="M 44 50.332031 L 91 50.332031 L 91 86 L 44 86 Z M 44 50.332031 " clip-rule="nonzero"/></clipPath></defs><g clip-path="url(#468043fcea)"><path fill="#ffffff" d="M 1.53125 0 L 598.46875 0 L 598.46875 194.003906 L 1.53125 194.003906 Z M 1.53125 0 " fill-opacity="1" fill-rule="nonzero"/><path fill="#fefefe" d="M 1.53125 0 L 598.46875 0 L 598.46875 194.003906 L 1.53125 194.003906 Z M 1.53125 0 " fill-opacity="1" fill-rule="nonzero"/></g><path fill="#0d0c1d" d="M 269.710938 105.992188 C 267.941406 116.441406 258.859375 123.203125 246.164062 123.140625 C 231.023438 123.066406 220.929688 110.933594 220.992188 96.3125 C 221.066406 81.28125 230.46875 70.265625 245.492188 70.339844 C 260.421875 70.414062 269.316406 80.8125 269.253906 94.417969 C 269.253906 95.53125 269.140625 97.265625 269.03125 97.972656 L 229.003906 97.773438 C 229.5625 108.332031 236.535156 115.886719 246.1875 115.921875 C 254.511719 115.960938 259.8125 112.332031 261.472656 105.945312 L 269.699219 105.980469 Z M 229.453125 91.273438 L 260.941406 91.421875 C 260.371094 82.792969 254.609375 77.273438 245.46875 77.234375 C 236.835938 77.199219 231.011719 82.25 229.453125 91.273438 Z M 229.453125 91.273438 " fill-opacity="1" fill-rule="nonzero"/><path fill="#0d0c1d" d="M 305.191406 122.609375 L 290.859375 101.933594 L 276.339844 122.472656 L 267.703125 122.433594 L 286.421875 95.621094 L 269.574219 71.265625 L 278.617188 71.316406 L 290.933594 89.242188 L 303.40625 71.429688 L 312.449219 71.476562 L 295.367188 95.65625 L 313.824219 122.644531 Z M 305.191406 122.609375 " fill-opacity="1" fill-rule="nonzero"/><path fill="#0d0c1d" d="M 326.386719 63.457031 L 319.078125 70.699219 L 326.359375 70.734375 L 326.101562 122.707031 L 317.976562 122.667969 L 318.296875 55.234375 L 326.4375 55.273438 Z M 326.386719 63.457031 " fill-opacity="1" fill-rule="nonzero"/><g clip-path="url(#d63366be3b)"><path fill="#0d0c1d" d="M 382.949219 71.8125 L 382.6875 125.21875 C 382.640625 136.078125 374.773438 143.667969 363.699219 143.605469 L 339.515625 143.492188 L 339.554688 136.484375 L 363.226562 136.597656 C 369.832031 136.632812 374.523438 131.683594 374.5625 124.875 L 374.613281 115.835938 C 372.148438 120.601562 365.332031 123.710938 357.601562 123.671875 C 341.648438 123.597656 332.976562 112.085938 333.039062 97.15625 C 333.101562 82.222656 341.90625 70.796875 357.851562 70.871094 C 364.761719 70.910156 371.652344 74.386719 374.773438 79.277344 L 374.808594 71.761719 L 382.9375 71.800781 Z M 375.40625 97.363281 C 375.464844 85.789062 368.789062 78.25 358.53125 78.199219 C 348.175781 78.152344 341.425781 85.628906 341.375 97.203125 C 341.3125 108.777344 347.992188 116.320312 358.347656 116.378906 C 368.605469 116.429688 375.355469 108.953125 375.40625 97.378906 Z M 375.40625 97.363281 " fill-opacity="1" fill-rule="nonzero"/></g><path fill="#0d0c1d" d="M 438.347656 106.796875 C 436.5625 117.246094 427.496094 124.007812 414.796875 123.945312 C 399.660156 123.871094 389.5625 111.738281 389.625 97.117188 C 389.699219 82.085938 399.101562 71.070312 414.128906 71.144531 C 429.054688 71.21875 437.949219 81.617188 437.890625 95.222656 C 437.890625 96.335938 437.777344 98.070312 437.664062 98.777344 L 397.640625 98.578125 C 398.199219 109.136719 405.171875 116.691406 414.824219 116.726562 C 423.148438 116.765625 428.449219 113.136719 430.109375 106.75 L 438.335938 106.785156 Z M 398.085938 92.089844 L 429.578125 92.238281 C 429.007812 83.609375 423.246094 78.089844 414.105469 78.050781 C 405.46875 78.015625 399.648438 83.066406 398.085938 92.089844 Z M 398.085938 92.089844 " fill-opacity="1" fill-rule="nonzero"/><path fill="#0d0c1d" d="M 444.914062 72.109375 L 453.039062 72.148438 L 452.988281 81.988281 C 455.664062 74.894531 462.082031 71.367188 469.910156 71.402344 C 481.496094 71.464844 488.976562 79.722656 488.914062 92.214844 L 488.765625 123.488281 L 480.640625 123.449219 L 480.789062 93.503906 C 480.824219 84.773438 475.785156 78.855469 468.054688 78.820312 C 459.320312 78.78125 452.976562 85.753906 452.941406 95.707031 L 452.804688 123.324219 L 444.675781 123.289062 L 444.925781 72.121094 Z M 444.914062 72.109375 " fill-opacity="1" fill-rule="nonzero"/><path fill="#0d0c1d" d="M 495.28125 97.933594 C 495.34375 84.230469 504.140625 71.578125 520.292969 71.652344 C 531.777344 71.699219 541.996094 78.460938 543.46875 89.835938 L 535.441406 89.800781 C 534.453125 83.597656 528.085938 79.003906 520.355469 78.96875 C 509.179688 78.917969 503.753906 87.523438 503.707031 97.972656 C 503.65625 108.433594 509.09375 117.085938 520.167969 117.136719 C 527.886719 117.171875 533.5 113.347656 535.355469 107.15625 L 543.285156 107.195312 C 541.511719 117.644531 533.039062 124.503906 520.03125 124.441406 C 503.878906 124.367188 495.207031 111.625 495.269531 97.921875 Z M 495.28125 97.933594 " fill-opacity="1" fill-rule="nonzero"/><path fill="#0d0c1d" d="M 595.101562 107.554688 C 593.320312 118.003906 584.25 124.761719 571.554688 124.699219 C 556.414062 124.625 546.320312 112.492188 546.382812 97.871094 C 546.457031 82.84375 555.859375 71.824219 570.886719 71.898438 C 585.8125 71.972656 594.707031 82.371094 594.644531 95.976562 C 594.644531 97.09375 594.53125 98.824219 594.421875 99.53125 L 554.398438 99.332031 C 554.953125 109.894531 561.929688 117.445312 571.578125 117.484375 C 579.902344 117.519531 585.207031 113.890625 586.863281 107.503906 L 595.089844 107.542969 Z M 554.832031 92.847656 L 586.320312 92.996094 C 585.75 84.367188 579.988281 78.84375 570.847656 78.808594 C 562.214844 78.769531 556.390625 83.820312 554.832031 92.847656 Z M 554.832031 92.847656 " fill-opacity="1" fill-rule="nonzero"/><g clip-path="url(#563c222dd5)"><path fill="#0d0c1d" d="M 159.683594 50.890625 L 169.53125 50.9375 L 205.902344 108.941406 L 206.1875 51.113281 L 214.820312 51.148438 L 214.472656 122.175781 L 204.527344 122.125 L 168.253906 64.324219 L 167.984375 121.953125 L 159.347656 121.914062 L 159.695312 50.890625 Z M 159.683594 50.890625 " fill-opacity="1" fill-rule="nonzero"/></g><path fill="#3735f2" d="M 133.828125 70.613281 L 122.78125 86.234375 L 103.839844 112.988281 L 99.851562 118.609375 C 98.523438 120.503906 96.355469 121.605469 94.039062 121.59375 L 80.265625 101.710938 L 78.308594 98.875 L 78.394531 98.738281 L 87.351562 86.050781 L 87.363281 86.050781 C 87.363281 86.050781 92.070312 79.402344 92.070312 79.402344 C 96.058594 73.769531 102.527344 70.4375 109.402344 70.476562 L 133.804688 70.597656 Z M 133.828125 70.613281 " fill-opacity="1" fill-rule="nonzero"/><path fill="#5f5ef5" d="M 94.050781 121.59375 L 51.996094 121.394531 C 48.75 121.382812 46.890625 117.742188 48.761719 115.117188 L 69.375 85.976562 L 78.332031 98.898438 L 80.289062 101.734375 L 94.066406 121.617188 Z M 94.050781 121.59375 " fill-opacity="1" fill-rule="nonzero"/><g clip-path="url(#f2b28fed9f)"><path fill="#3735f2" d="M 4.898438 101.3125 L 15.945312 85.691406 L 34.886719 58.9375 L 38.875 53.316406 C 40.191406 51.433594 42.359375 50.332031 44.675781 50.332031 L 58.449219 70.214844 L 60.40625 73.050781 L 60.320312 73.1875 L 51.363281 85.875 L 51.351562 85.875 C 51.351562 85.875 46.644531 92.523438 46.644531 92.523438 C 42.65625 98.15625 36.1875 101.488281 29.3125 101.449219 L 4.910156 101.328125 Z M 4.898438 101.3125 " fill-opacity="1" fill-rule="nonzero"/></g><g clip-path="url(#246e5d8787)"><path fill="#5f5ef5" d="M 44.675781 50.332031 L 86.730469 50.53125 C 89.976562 50.542969 91.835938 54.183594 89.964844 56.808594 L 69.351562 85.949219 L 60.394531 73.027344 L 58.4375 70.191406 Z M 44.675781 50.332031 " fill-opacity="1" fill-rule="nonzero"/></g></svg>