<svg xmlns="http://www.w3.org/2000/svg" width="1200" height="630" viewBox="0 0 1200 630" role="img" aria-labelledby="title desc">
  <title id="title">HackUnion homepage social preview</title>
  <desc id="desc">HackUnion is a builder-first technology community for developers, designers, founders, AI engineers, and creators.</desc>
  <defs>
    <linearGradient id="bg" x1="0" y1="0" x2="1" y2="1">
      <stop offset="0%" stop-color="#0b1220" />
      <stop offset="52%" stop-color="#173372" />
      <stop offset="100%" stop-color="#0f172a" />
    </linearGradient>
    <radialGradient id="glowBlue" cx="0" cy="0" r="1" gradientUnits="userSpaceOnUse" gradientTransform="translate(250 160) rotate(90) scale(260 340)">
      <stop offset="0%" stop-color="#4f8cff" stop-opacity="0.85" />
      <stop offset="100%" stop-color="#4f8cff" stop-opacity="0" />
    </radialGradient>
    <radialGradient id="glowOrange" cx="0" cy="0" r="1" gradientUnits="userSpaceOnUse" gradientTransform="translate(1010 510) rotate(90) scale(220 280)">
      <stop offset="0%" stop-color="#f56c00" stop-opacity="0.75" />
      <stop offset="100%" stop-color="#f56c00" stop-opacity="0" />
    </radialGradient>
  </defs>
  <rect width="1200" height="630" rx="40" fill="url(#bg)" />
  <rect width="1200" height="630" rx="40" fill="url(#glowBlue)" />
  <rect width="1200" height="630" rx="40" fill="url(#glowOrange)" />
  <g opacity="0.18">
    <path d="M0 90H1200" stroke="#ffffff" />
    <path d="M0 180H1200" stroke="#ffffff" />
    <path d="M0 270H1200" stroke="#ffffff" />
    <path d="M0 360H1200" stroke="#ffffff" />
    <path d="M0 450H1200" stroke="#ffffff" />
    <path d="M0 540H1200" stroke="#ffffff" />
    <path d="M120 0V630" stroke="#ffffff" />
    <path d="M240 0V630" stroke="#ffffff" />
    <path d="M360 0V630" stroke="#ffffff" />
    <path d="M480 0V630" stroke="#ffffff" />
    <path d="M600 0V630" stroke="#ffffff" />
    <path d="M720 0V630" stroke="#ffffff" />
    <path d="M840 0V630" stroke="#ffffff" />
    <path d="M960 0V630" stroke="#ffffff" />
    <path d="M1080 0V630" stroke="#ffffff" />
  </g>
  <g>
    <rect x="74" y="70" width="128" height="48" rx="24" fill="#ffffff" fill-opacity="0.12" stroke="#ffffff" stroke-opacity="0.18" />
    <text x="138" y="100" fill="#9ec4ff" font-family="Arial, sans-serif" font-size="18" font-weight="700" letter-spacing="2">HACKUNION</text>
  </g>
  <text x="74" y="222" fill="#ffffff" font-family="Arial, sans-serif" font-size="78" font-weight="700">A home for builders who</text>
  <text x="74" y="308" fill="#ffffff" font-family="Arial, sans-serif" font-size="78" font-weight="700">learn, ship, and keep</text>
  <text x="74" y="394" fill="#ffffff" font-family="Arial, sans-serif" font-size="78" font-weight="700">going together.</text>
  <text x="74" y="468" fill="#d9e6ff" font-family="Arial, sans-serif" font-size="28">Builder-first technology community for developers, designers, founders, AI engineers, and creators.</text>
  <g transform="translate(74 520)">
    <rect width="182" height="48" rx="24" fill="#2f63e4" />
    <text x="91" y="31" text-anchor="middle" fill="#ffffff" font-family="Arial, sans-serif" font-size="20" font-weight="700">Join the Community</text>
  </g>
  <g transform="translate(902 96)">
    <rect width="220" height="138" rx="28" fill="#ffffff" fill-opacity="0.12" stroke="#ffffff" stroke-opacity="0.18" />
    <text x="28" y="48" fill="#9ec4ff" font-family="Arial, sans-serif" font-size="16" font-weight="700" letter-spacing="2">LIVE ECOSYSTEM</text>
    <text x="28" y="88" fill="#ffffff" font-family="Arial, sans-serif" font-size="28" font-weight="700">Builders</text>
    <text x="28" y="120" fill="#d9e6ff" font-family="Arial, sans-serif" font-size="22">Experiences  Projects</text>
  </g>
</svg>